<?xml version="1.0" encoding="UTF-8" ?>
<svg xmlns="http://www.w3.org/2000/svg" version="1.1"
    viewBox="0 0 666.11626 340.15627"
    height="340.15628pt" width="666.11627pt" >
    <g id="h" >
        <path id="h_greater" fill="#453a62" d="M 0,340.15625 113.38672,170.07812 0,0 H 85.039062 L 198.42578,170.07812 85.039062,340.15625 Z m 0,0" />
        <path id="h_lambda" fill="#5e5086" d="M 113.38672,340.15625 226.77344,170.07812 113.38672,0 h 85.03906 L 425.19531,340.15625 H 340.15625 L 269.29297,233.85937 198.42578,340.15625 Z m 0,0" />
    </g>
    <g fill="#8f4e8b" >
        <g id="e" >
            <path id="e_top" d="m 628.31938,170.06316 37.79688,-56.6914 -188.97656,-0.004 v 56.69541 z m 0,0" />
            <path id="e_middle" d="m 552.7295,255.10222 37.79297,-56.6914 -113.38277,-0.004 v 56.69531 z" />
            <path id="e_bottom" d="m 590.52247,340.14118 37.79688,-56.6914 -151.17965,-0.004 v 56.69531 z" />
        </g>
        <g id="i">
            <path id="i_body" d="m 396.84929,255.11786 56.6914,85.03838 0.004,-226.78898 -56.69516,-0.001 z" />
            <path id="i_point" d="m 453.54492,89.769118 9.6e-4,-56.6914 -56.69643,-0.004 v 56.69531 z" />
        </g>
    </g>
</svg>
